<svg width="44" height="44" viewBox="0 0 44 44" fill="none" xmlns="http://www.w3.org/2000/svg">
<path d="M21.6559 43.6558C15.9997 43.6534 10.5761 41.4048 6.57746 37.4044C2.57883 33.4041 0.33258 27.9794 0.332581 22.3233C0.332581 16.668 2.57912 11.2443 6.57802 7.24544C10.5769 3.24654 16.0006 1 21.6559 1C27.3112 1 32.7349 3.24654 36.7338 7.24544C40.7326 11.2443 42.9792 16.668 42.9792 22.3233C42.9792 27.9794 40.7329 33.4041 36.7343 37.4044C32.7357 41.4048 27.312 43.6534 21.6559 43.6558Z" stroke="white" stroke-width="0.43" stroke-miterlimit="10"/>
<path d="M18.7725 33.7519H23.3621V22.232H26.5748L26.9145 18.3675H23.3621V16.1737C23.3621 15.2557 23.5457 14.9069 24.4269 14.9069H26.9145V10.8589H23.7293C20.3054 10.8589 18.7541 12.3735 18.7541 15.2557V18.3308H16.3676V22.2411H18.7541L18.7725 33.7519Z" fill="white"/>
</svg>
