<svg width="44" height="44" viewBox="0 0 44 44" fill="none" xmlns="http://www.w3.org/2000/svg">
<path d="M22.0016 43.6558C16.3446 43.6534 10.92 41.4051 6.91989 37.405C2.9198 33.4049 0.6715 27.9803 0.669067 22.3233C0.671501 16.6672 2.92009 11.2435 6.92045 7.24488C10.9208 3.24625 16.3454 0.999999 22.0016 1C27.6569 1 33.0805 3.24654 37.0794 7.24544C41.0783 11.2443 43.3249 16.668 43.3249 22.3233C43.3249 27.9794 41.0786 33.4041 37.08 37.4044C33.0813 41.4048 27.6577 43.6534 22.0016 43.6558Z" stroke="white" stroke-width="0.43" stroke-miterlimit="10"/>
<path d="M21.9993 13.8235C24.753 13.8235 25.0927 13.8235 26.185 13.8878C26.8435 13.8936 27.4959 14.0148 28.1126 14.2458C28.5606 14.4152 28.9674 14.678 29.3061 15.0167C29.6448 15.3553 29.9076 15.7622 30.077 16.2101C30.308 16.8268 30.4292 17.4792 30.435 18.1378C30.4809 19.2301 30.4992 19.5605 30.4992 22.3235C30.4992 25.0864 30.4992 25.4261 30.435 26.5184C30.4308 27.1741 30.3096 27.8238 30.077 28.4368C29.9143 28.8882 29.6505 29.2963 29.306 29.6302C28.9693 29.9735 28.5622 30.2397 28.1126 30.4104C27.4947 30.6368 26.8431 30.7579 26.185 30.7684C25.0927 30.8143 24.7622 30.8235 21.9993 30.8235C19.2363 30.8235 18.8967 30.8235 17.8044 30.7684C17.1491 30.7593 16.5003 30.6382 15.8859 30.4104C15.4385 30.2355 15.0322 29.9698 14.6926 29.6302C14.3529 29.2905 14.0873 28.8842 13.9124 28.4368C13.6845 27.8225 13.5635 27.1736 13.5544 26.5184C13.5085 25.4261 13.4993 25.0956 13.4993 22.3235C13.4993 19.5514 13.4993 19.2301 13.5544 18.1378C13.5649 17.4797 13.6859 16.8281 13.9124 16.2101C14.0831 15.7606 14.3493 15.3535 14.6926 15.0168C15.0264 14.6723 15.4346 14.4085 15.8859 14.2458C16.499 14.0132 17.1487 13.892 17.8044 13.8878C18.8967 13.8419 19.2272 13.8235 21.9993 13.8235ZM21.9993 11.9877C19.1813 11.9877 18.8233 11.9877 17.7218 12.0519C16.8622 12.0657 16.0115 12.2272 15.2067 12.5293C14.5173 12.7929 13.8916 13.1996 13.3708 13.7226C12.8407 14.2375 12.4329 14.8649 12.1775 15.5584C11.8693 16.3618 11.7046 17.2131 11.691 18.0735C11.6451 19.175 11.6268 19.533 11.6268 22.3419C11.6268 25.1507 11.6268 25.5179 11.691 26.6194C11.7072 27.4795 11.8718 28.3304 12.1775 29.1345C12.4343 29.8273 12.8419 30.4544 13.3708 30.9703C13.8889 31.4989 14.5152 31.9091 15.2067 32.1728C16.0127 32.4704 16.8627 32.6317 17.7218 32.6501C18.8233 32.6501 19.1813 32.7144 21.9993 32.7144C24.8173 32.7144 25.1661 32.7144 26.2676 32.6501C27.1269 32.6336 27.9772 32.4723 28.7827 32.1728C29.4749 31.9104 30.1014 31.5 30.6186 30.9703C31.1416 30.4496 31.5483 29.8239 31.8119 29.1345C32.1139 28.3297 32.2754 27.4789 32.2892 26.6194C32.3443 25.5179 32.3534 25.1599 32.3534 22.3419C32.3534 19.5238 32.3535 19.175 32.2892 18.0735C32.2773 17.2138 32.1157 16.3627 31.8119 15.5584C31.5488 14.866 31.1421 14.2373 30.6184 13.7136C30.0947 13.1899 29.4659 12.7831 28.7735 12.5201C27.9692 12.2162 27.1182 12.0547 26.2584 12.0428C25.1569 11.9877 24.799 11.9785 21.9901 11.9785" fill="white"/>
<path d="M21.9993 17C20.9463 17 19.917 17.3122 19.0415 17.8972C18.166 18.4823 17.4836 19.3137 17.0806 20.2866C16.6777 21.2594 16.5722 22.3298 16.7777 23.3626C16.9831 24.3953 17.4901 25.344 18.2347 26.0885C18.9793 26.8331 19.9279 27.3402 20.9606 27.5456C21.9934 27.751 23.0639 27.6456 24.0367 27.2426C25.0095 26.8397 25.841 26.1573 26.426 25.2818C27.011 24.4063 27.3233 23.3769 27.3233 22.3239C27.3233 20.9119 26.7623 19.5578 25.7639 18.5594C24.7655 17.5609 23.4113 17 21.9993 17ZM21.9993 25.7845C21.3145 25.7863 20.6445 25.5849 20.0742 25.2058C19.5039 24.8266 19.0589 24.2868 18.7956 23.6546C18.5323 23.0225 18.4624 22.3263 18.5949 21.6545C18.7274 20.9826 19.0563 20.3651 19.5399 19.8802C20.0235 19.3953 20.6401 19.0648 21.3116 18.9306C21.9831 18.7963 22.6794 18.8643 23.3123 19.1259C23.9451 19.3876 24.4862 19.8311 24.8668 20.4004C25.2475 20.9697 25.4507 21.6391 25.4507 22.3239C25.4507 23.2401 25.0873 24.119 24.4403 24.7677C23.7933 25.4164 22.9155 25.7821 21.9993 25.7845Z" fill="white"/>
<path d="M28.7744 16.789C28.7762 17.0367 28.7043 17.2793 28.5678 17.486C28.4313 17.6927 28.2365 17.8542 28.008 17.9498C27.7795 18.0454 27.5277 18.0709 27.2847 18.023C27.0417 17.9752 26.8184 17.8561 26.6433 17.6809C26.4681 17.5058 26.3491 17.2825 26.3012 17.0395C26.2533 16.7965 26.2788 16.5447 26.3744 16.3162C26.47 16.0878 26.6315 15.8929 26.8382 15.7564C27.0449 15.6199 27.2875 15.548 27.5352 15.5498C27.8631 15.5522 28.1769 15.6836 28.4088 15.9155C28.6406 16.1473 28.772 16.4611 28.7744 16.789Z" fill="white"/>
</svg>
