<svg width="44" height="44" viewBox="0 0 44 44" fill="none" xmlns="http://www.w3.org/2000/svg">
<path d="M21.6679 43.6558C16.0118 43.6534 10.5882 41.4048 6.58952 37.4044C2.59088 33.4041 0.344634 27.9794 0.344635 22.3233C0.344635 16.668 2.59118 11.2443 6.59008 7.24544C10.589 3.24654 16.0126 1 21.6679 1C27.3241 0.999999 32.7487 3.24625 36.7491 7.24488C40.7494 11.2435 42.998 16.6672 43.0004 22.3233C42.998 27.9803 40.7497 33.4049 36.7496 37.405C32.7495 41.4051 27.3249 43.6534 21.6679 43.6558Z" stroke="white" stroke-width="0.43" stroke-miterlimit="10"/>
<path d="M32.9779 16.5957C32.8339 16.0956 32.5616 15.6419 32.188 15.2796C31.8144 14.9172 31.3526 14.659 30.8483 14.5304C29.0125 14.0347 21.6049 14.0347 21.6049 14.0347C21.6049 14.0347 14.2156 14.0347 12.3706 14.5304C11.8687 14.6678 11.4115 14.9341 11.0444 15.3028C10.6773 15.6716 10.413 16.1299 10.2777 16.6324C9.61677 20.4224 9.61677 24.2981 10.2777 28.088C10.4116 28.5922 10.6752 29.0525 11.0424 29.4229C11.4097 29.7934 11.8676 30.0611 12.3706 30.1993C14.2064 30.695 21.6049 30.6949 21.6049 30.6949C21.6049 30.6949 29.0033 30.695 30.8483 30.1993C31.3513 30.0611 31.8093 29.7934 32.1765 29.4229C32.5437 29.0525 32.8074 28.5922 32.9412 28.088C33.6022 24.2981 33.6022 20.4224 32.9412 16.6324L32.9779 16.5957ZM19.2091 25.8392V18.8079L25.3867 22.3235L19.2091 25.8392Z" fill="white"/>
</svg>
