<svg width="44" height="44" viewBox="0 0 44 44" fill="none" xmlns="http://www.w3.org/2000/svg">
<path d="M22.3233 43.6558C16.6672 43.6534 11.2435 41.4048 7.24491 37.4044C3.24628 33.4041 0.999999 27.9794 1 22.3233C1 16.668 3.24657 11.2443 7.24547 7.24544C11.2444 3.24654 16.668 1 22.3233 1C27.9786 1 33.4023 3.24654 37.4012 7.24544C41.4001 11.2443 43.6466 16.668 43.6466 22.3233C43.6466 27.9794 41.4004 33.4041 37.4018 37.4044C33.4031 41.4048 27.9795 43.6534 22.3233 43.6558Z" stroke="white" stroke-width="0.43" stroke-miterlimit="10"/>
<path fill-rule="evenodd" clip-rule="evenodd" d="M35.229 21.2947C35.1392 18.1016 33.8152 15.0676 31.5353 12.8302C29.2553 10.5928 26.197 9.32614 23.0027 9.29643C19.8085 9.26672 16.727 10.4763 14.4058 12.6709C12.0847 14.8655 10.7045 17.8744 10.5553 21.0653C10.5553 21.2488 10.5553 21.4232 10.5553 21.6068C10.5574 23.8384 11.1735 26.0265 12.3361 27.9313L10.1147 34.5037L16.9257 32.3373C18.7559 33.3359 20.8073 33.8598 22.8922 33.8611C24.5075 33.8671 26.1081 33.555 27.6027 32.9424C29.0974 32.3298 30.4567 31.4289 31.6032 30.291C32.7496 29.153 33.6607 27.8004 34.2844 26.3104C34.9081 24.8204 35.2322 23.2221 35.2382 21.6068L35.229 21.2947ZM22.883 31.9059C20.8533 31.9108 18.8673 31.3169 17.1735 30.1986L13.1897 31.4745L14.484 27.6468C13.1947 25.897 12.4999 23.7803 12.5013 21.6068C12.5011 21.2726 12.5195 20.9385 12.5564 20.6063C12.822 18.0346 14.0377 15.6545 15.9655 13.9318C17.8933 12.2091 20.3946 11.2676 22.9799 11.2918C25.5652 11.3159 28.0485 12.3037 29.9439 14.0621C31.8393 15.8205 33.0103 18.2228 33.228 20.7991C33.2419 21.0681 33.2419 21.3378 33.228 21.6068C33.2158 24.3425 32.1206 26.962 30.1818 28.8922C28.2431 30.8223 25.6187 31.9059 22.883 31.9059Z" fill="white"/>
<path fill-rule="evenodd" clip-rule="evenodd" d="M28.5477 24.0764C28.2356 23.9295 26.7118 23.2043 26.4732 23.1034C26.2345 23.0024 25.9958 22.9565 25.7939 23.2502C25.592 23.544 25.0045 24.2324 24.8301 24.4252C24.6557 24.6179 24.4813 24.6546 24.1784 24.4986C23.2854 24.1518 22.4617 23.6482 21.7459 23.0116C21.0814 22.4093 20.512 21.7099 20.0569 20.9371C19.8825 20.6342 20.0569 20.4689 20.1946 20.3221C20.3323 20.1752 20.4975 19.9732 20.6535 19.7988L20.7637 19.652C20.8323 19.5366 20.8936 19.417 20.9473 19.294C20.9932 19.2145 21.0174 19.1242 21.0174 19.0324C21.0174 18.9405 20.9932 18.8503 20.9473 18.7708C20.8738 18.6147 20.2588 17.1369 20.0294 16.5402C19.7999 15.9436 19.5245 16.0445 19.3409 16.0445C19.1573 16.0445 18.9738 16.0445 18.7718 16.0445C18.6174 16.0495 18.4655 16.0854 18.3252 16.15C18.1849 16.2147 18.059 16.3068 17.9548 16.4209C17.6137 16.7437 17.3436 17.1341 17.1619 17.5672C16.9801 18.0002 16.8907 18.4664 16.8992 18.936C16.9055 19.2811 16.958 19.6238 17.0553 19.9549C17.2923 20.7072 17.6588 21.4124 18.1384 22.0386C18.2853 22.2313 20.2313 25.3614 23.3063 26.5731C26.3814 27.7848 26.3814 27.3717 26.978 27.3166C27.3994 27.2382 27.7991 27.0707 28.1506 26.8253C28.502 26.5799 28.797 26.2624 29.0158 25.8939C29.2156 25.4447 29.2794 24.9469 29.1994 24.4619C29.0433 24.3058 28.8598 24.2324 28.5477 24.0764Z" fill="white"/>
</svg>
