<svg width="44" height="44" viewBox="0 0 44 44" fill="none" xmlns="http://www.w3.org/2000/svg">
<path d="M22.3315 43.6558C16.6754 43.6534 11.2517 41.4048 7.25309 37.4044C3.25445 33.4041 1.00818 27.9794 1.00818 22.3233C1.00818 19.5231 1.55972 16.7503 2.63132 14.1632C3.70292 11.5762 5.27357 9.2255 7.25362 7.24544C9.23368 5.26539 11.5843 3.69474 14.1714 2.62314C16.7585 1.55155 19.5313 1 22.3315 1C27.9868 1 33.4105 3.24654 37.4094 7.24544C41.4083 11.2443 43.6548 16.668 43.6548 22.3233C43.6548 27.9794 41.4086 33.4041 37.4099 37.4044C33.4113 41.4048 27.9877 43.6534 22.3315 43.6558Z" stroke="white" stroke-width="0.43" stroke-miterlimit="10"/>
<path d="M12.2635 29.5201C14.0758 30.679 16.1713 31.3186 18.3219 31.3692C20.4726 31.4197 22.5958 30.8794 24.4606 29.8069C26.3254 28.7344 27.8602 27.1709 28.898 25.2866C29.9359 23.4022 30.4369 21.2693 30.3465 19.12C31.156 18.5311 31.8551 17.804 32.4119 16.9721C31.6564 17.307 30.8551 17.5267 30.0345 17.6238C30.9047 17.1114 31.5576 16.2985 31.8703 15.3382C31.0593 15.8203 30.1712 16.1588 29.245 16.3387C28.6205 15.6795 27.7966 15.2439 26.9002 15.099C26.0038 14.954 25.0847 15.1079 24.2843 15.5368C23.4839 15.9657 22.8467 16.6458 22.4709 17.4724C22.0951 18.2991 22.0015 19.2263 22.2046 20.1114C20.5604 20.0293 18.9517 19.6028 17.4827 18.8597C16.0138 18.1165 14.7173 17.0731 13.6771 15.7972C13.1507 16.7064 12.9905 17.7821 13.2293 18.8053C13.468 19.8285 14.0877 20.7223 14.9622 21.3047C14.3185 21.2788 13.6898 21.1028 13.1263 20.7906C13.1155 21.7531 13.4405 22.6893 14.0452 23.4382C14.65 24.187 15.4968 24.7017 16.44 24.8938C15.8409 25.0524 15.2141 25.0775 14.6042 24.9672C14.8657 25.7883 15.3785 26.5065 16.0703 27.0204C16.7621 27.5343 17.5978 27.8179 18.4594 27.8311C17.5917 28.512 16.5965 29.0122 15.5323 29.3023C14.4682 29.5924 13.3567 29.6664 12.2635 29.5201Z" fill="white"/>
</svg>
