<svg width="32" height="24" viewBox="0 0 32 24" fill="none" xmlns="http://www.w3.org/2000/svg">
<path d="M1.49709 24L30.4552 24C30.8525 24 31.2335 23.8425 31.5144 23.5621C31.7953 23.2817 31.9531 22.9014 31.9531 22.5049C31.9531 22.1083 31.7953 21.728 31.5144 21.4476C31.2335 21.1673 30.8525 21.0097 30.4552 21.0097L1.49709 21.0097C1.09984 21.0097 0.718859 21.1672 0.437962 21.4476C0.157063 21.728 -0.000745608 22.1083 -0.000745643 22.5049C-0.000745677 22.9014 0.157063 23.2817 0.437962 23.5621C0.718859 23.8425 1.09984 24 1.49709 24Z" fill="black"/>
<path d="M1.49709 2.99023L30.4552 2.99023C30.8525 2.99023 31.2335 2.83271 31.5144 2.55232C31.7953 2.27193 31.9531 1.89163 31.9531 1.4951C31.9531 1.09856 31.7953 0.718269 31.5144 0.437876C31.2335 0.157484 30.8525 -3.77664e-05 30.4552 -3.78011e-05L1.49709 -4.03327e-05C1.09984 -4.03674e-05 0.718859 0.157481 0.437962 0.437874C0.157063 0.718266 -0.000745608 1.09856 -0.000745643 1.4951C-0.000745677 1.89163 0.157063 2.27192 0.437962 2.55232C0.718859 2.83271 1.09984 2.99023 1.49709 2.99023Z" fill="black"/>
<path d="M9.49691 13.4961L30.4552 13.4961C30.8525 13.4961 31.2335 13.3386 31.5144 13.0582C31.7953 12.7778 31.9531 12.3975 31.9531 12.001C31.9531 11.6044 31.7953 11.2241 31.5144 10.9437C31.2335 10.6633 30.8525 10.5058 30.4552 10.5058L9.49691 10.5058C9.09966 10.5058 8.71868 10.6633 8.43778 10.9437C8.15688 11.2241 7.99907 11.6044 7.99907 12.001C7.99907 12.3975 8.15688 12.7778 8.43778 13.0582C8.71868 13.3386 9.09966 13.4961 9.49691 13.4961Z" fill="black"/>
</svg>
