<svg width="220" height="30" viewBox="0 0 220 30" fill="none" xmlns="http://www.w3.org/2000/svg">
<path d="M2.352 0H39.312C39.984 0 40.544 0.224 40.992 0.672C41.44 1.12 41.664 1.664 41.664 2.304C41.664 2.944 41.44 3.504 40.992 3.984C40.544 4.432 39.984 4.656 39.312 4.656H23.184V26.976C23.184 27.616 22.944 28.16 22.464 28.608C22.016 29.088 21.472 29.328 20.832 29.328C20.192 29.328 19.632 29.088 19.152 28.608C18.704 28.16 18.48 27.616 18.48 26.976V4.656H2.352C1.68 4.656 1.12 4.432 0.672 3.984C0.224 3.504 0 2.944 0 2.304C0 1.664 0.224 1.12 0.672 0.672C1.12 0.224 1.68 0 2.352 0Z" fill="white"/>
<path d="M65.001 0C65.705 0 66.265 0.272 66.681 0.816001L87.657 25.488C88.041 25.904 88.233 26.4 88.233 26.976C88.233 27.68 87.961 28.272 87.417 28.752C86.969 29.136 86.457 29.328 85.881 29.328C85.177 29.328 84.585 29.056 84.105 28.512L64.905 5.904L45.753 28.512C45.273 29.056 44.681 29.328 43.977 29.328C43.401 29.328 42.889 29.136 42.441 28.752C41.897 28.272 41.625 27.68 41.625 26.976C41.625 26.4 41.817 25.904 42.201 25.488L63.129 0.816001C63.609 0.272 64.201 0 64.905 0C64.937 0 64.969 0 65.001 0Z" fill="white"/>
<path d="M100.085 0H100.133C100.581 0 100.997 0.128 101.381 0.384001L134.789 22.608V2.304C134.789 1.664 135.013 1.12 135.461 0.672C135.909 0.224 136.453 0 137.093 0C137.765 0 138.325 0.224 138.773 0.672C139.221 1.12 139.445 1.664 139.445 2.304V26.976C139.445 27.616 139.221 28.16 138.773 28.608C138.325 29.088 137.765 29.328 137.093 29.328C136.645 29.328 136.213 29.184 135.797 28.896L102.437 6.672V26.976C102.437 27.616 102.213 28.16 101.765 28.608C101.317 29.088 100.757 29.328 100.085 29.328C99.4453 29.328 98.9012 29.088 98.4532 28.608C98.0052 28.16 97.7812 27.616 97.7812 26.976V2.304C97.7812 1.664 98.0052 1.12 98.4532 0.672C98.9012 0.224 99.4453 0 100.085 0Z" fill="white"/>
<path d="M149.688 0.672C150.136 0.224 150.68 0 151.32 0C151.992 0 152.552 0.224 153 0.672C153.448 1.12 153.672 1.664 153.672 2.304V26.976C153.672 27.616 153.448 28.16 153 28.608C152.552 29.088 151.992 29.328 151.32 29.328C150.68 29.328 150.136 29.088 149.688 28.608C149.24 28.16 149.016 27.616 149.016 26.976V2.304C149.016 1.664 149.24 1.12 149.688 0.672Z" fill="white"/>
<path d="M171.762 0H200.13C200.77 0 201.314 0.224 201.762 0.672C202.242 1.12 202.482 1.664 202.482 2.304C202.482 2.944 202.242 3.504 201.762 3.984C201.314 4.432 200.77 4.656 200.13 4.656H171.762C170.674 4.656 169.762 5.024 169.026 5.76C168.29 6.496 167.922 7.408 167.922 8.496C167.922 9.552 168.29 10.448 169.026 11.184C169.762 11.92 170.674 12.288 171.762 12.288H196.434C198.77 12.288 200.77 13.136 202.434 14.832C204.098 16.496 204.93 18.496 204.93 20.832C204.93 23.168 204.098 25.168 202.434 26.832C200.77 28.496 198.77 29.328 196.434 29.328H165.618C164.946 29.328 164.386 29.088 163.938 28.608C163.49 28.16 163.266 27.616 163.266 26.976C163.266 26.336 163.49 25.792 163.938 25.344C164.386 24.864 164.946 24.624 165.618 24.624H196.434C197.522 24.624 198.434 24.256 199.17 23.52C199.906 22.784 200.274 21.888 200.274 20.832C200.274 19.744 199.906 18.832 199.17 18.096C198.434 17.36 197.522 16.992 196.434 16.992H171.762C169.426 16.992 167.426 16.16 165.762 14.496C164.098 12.8 163.266 10.8 163.266 8.496C163.266 6.16 164.098 4.16 165.762 2.496C167.426 0.832 169.426 0 171.762 0Z" fill="white"/>
<path d="M215.172 0.672C215.62 0.224 216.164 0 216.804 0C217.476 0 218.036 0.224 218.484 0.672C218.932 1.12 219.156 1.664 219.156 2.304V26.976C219.156 27.616 218.932 28.16 218.484 28.608C218.036 29.088 217.476 29.328 216.804 29.328C216.164 29.328 215.62 29.088 215.172 28.608C214.724 28.16 214.5 27.616 214.5 26.976V2.304C214.5 1.664 214.724 1.12 215.172 0.672Z" fill="white"/>
</svg>
